<svg version="1.1" baseProfile="full" width="390" height="300" xmlns="http://www.w3.org/2000/svg" viewBox="0 0 130 80">
<text font-size="10">Destroyer</text>
<g style="fill:none; stroke:black; stroke-width:1">
	<title>Ball</title>
	<circle cx="30" cy="50" r="10"></circle>
</g>
<g style="fill:none; stroke:black; stroke-width:1">
	<title>Machine</title>
	<polyline points="36 42 50 25"/>
	<polyline points="64 31 50 25 59 31" />
	<rect x="56" y="31" width="10" height="10" rx="1" ry="1" />
	<rect x="55" y="42" width="5" height="3" rx="1" ry="1" />
	<rect x="62" y="42" width="5" height="3" rx="1" ry="1" />
</g>
<g style="fill:none; stroke:black; stroke-width:1">
	<title>Building</title>
	<rect x="85" y="30" width="30" height="40" />

	<rect x="90" y="35" width="3" height="4" />
	<rect x="98.5" y="35" width="3" height="4" />
	<rect x="107" y="35" width="3" height="4" />

	<rect x="90" y="44" width="3" height="4" />
	<rect x="98.5" y="44" width="3" height="4" />
	<rect x="107" y="44" width="3" height="4" />

	<rect x="90" y="53" width="3" height="4" />
	<rect x="98.5" y="53" width="3" height="4" />
	<rect x="107" y="53" width="3" height="4" />

	<rect x="90" y="62" width="3" height="4" />
	<rect x="98.5" y="62" width="3" height="4" />

	<rect x="107" y="63" width="3" height="7" />
</g>
<g style="fill:none; stroke:black; stroke-width:1">
	<title>Speech bubble</title>
	<text x="99" y="19.5" style="font-family:sans-serif; font-size:10px; stroke:gray; fill:gray; stroke-width:0.1">Help</text>
	<ellipse cx="109" cy="16" rx="15" ry="7" />
	<polyline points="97 20 92 33 110 23" />
</g>
</svg>
